
<svg
  version="1.0"
  xmlns="http://www.w3.org/2000/svg"
  xmlns:xlink="http://www.w3.org/1999/xlink"
  width="2400"
  height="1800"
>
  
  <rect
    x="0"
    y="0"
    width="100%"
    height="100%"
    fill="#fefaf1"
    fill-opacity="1"
  ></rect>
  <svg
    version="1.0"
    xmlns="http://www.w3.org/2000/svg"
    xmlns:xlink="http://www.w3.org/1999/xlink"
    x="0"
    y="0"
    width="2400"
    height="1800"
    viewBox="0 0 340.000000 250.000000"
    preserveAspectRatio="xMidYMid meet"
    color-interpolation-filters="sRGB"
  >
    <defs><linearGradient id="92" x1="0%" y1="0%" x2="100%" y2="0%"><stop offset="0%" stop-color="#fa71cd"/> <stop offset="100%" stop-color="#9b59b6"/></linearGradient><linearGradient id="93" x1="0%" y1="0%" x2="100%" y2="0%"><stop offset="0%" stop-color="#f9d423"/> <stop offset="100%" stop-color="#f83600"/></linearGradient><linearGradient id="94" x1="0%" y1="0%" x2="100%" y2="0%"><stop offset="0%" stop-color="#0064d2"/> <stop offset="100%" stop-color="#1cb0f6"/></linearGradient><linearGradient id="95" x1="0%" y1="0%" x2="100%" y2="0%"><stop offset="0%" stop-color="#f00978"/> <stop offset="100%" stop-color="#3f51b1"/></linearGradient><linearGradient id="96" x1="0%" y1="0%" x2="100%" y2="0%"><stop offset="0%" stop-color="#7873f5"/> <stop offset="100%" stop-color="#ec77ab"/></linearGradient><linearGradient id="97" x1="0%" y1="0%" x2="100%" y2="0%"><stop offset="0%" stop-color="#f9d423"/> <stop offset="100%" stop-color="#e14fad"/></linearGradient><linearGradient id="98" x1="0%" y1="0%" x2="100%" y2="0%"><stop offset="0%" stop-color="#009efd"/> <stop offset="100%" stop-color="#2af598"/></linearGradient><linearGradient id="99" x1="0%" y1="0%" x2="100%" y2="0%"><stop offset="0%" stop-color="#ffcc00"/> <stop offset="100%" stop-color="#00b140"/></linearGradient><linearGradient id="100" x1="0%" y1="0%" x2="100%" y2="0%"><stop offset="0%" stop-color="#d51007"/> <stop offset="100%" stop-color="#ff8177"/></linearGradient><linearGradient id="102" x1="0%" y1="0%" x2="100%" y2="0%"><stop offset="0%" stop-color="#a2b6df"/> <stop offset="100%" stop-color="#0c3483"/></linearGradient><linearGradient id="103" x1="0%" y1="0%" x2="100%" y2="0%"><stop offset="0%" stop-color="#7ac5d8"/> <stop offset="100%" stop-color="#eea2a2"/></linearGradient><linearGradient id="104" x1="0%" y1="0%" x2="100%" y2="0%"><stop offset="0%" stop-color="#00ecbc"/> <stop offset="100%" stop-color="#007adf"/></linearGradient><linearGradient id="105" x1="0%" y1="0%" x2="100%" y2="0%"><stop offset="0%" stop-color="#b88746"/> <stop offset="100%" stop-color="#fdf5a6"/></linearGradient></defs> <g fill="#F66666" class="icon-text-wrapper icon-svg-group iconsvg" transform="translate(62.75,95)"><g class="iconsvg-imagesvg" transform="translate(0,0)"><g><rect fill="#F66666" fill-opacity="0" stroke-width="2" x="0" y="0" width="60" height="60" class="image-rect"/> <svg x="0" y="0" width="60" height="60" filtersec="colorsb5858973867" class="image-svg-svg primary" style="overflow: visible;"><svg xmlns="http://www.w3.org/2000/svg" viewBox="2 2 96 96"><path d="M50 2C23.533 2 2 23.533 2 50s21.533 48 48 48 48-21.533 48-48S76.467 2 50 2zm34.47 20.702L74.041 33.13C58.003 49.168 36.681 58 14.001 58H6.742a44.11 44.11 0 0 1-.693-6.05c22.979-.517 44.511-9.683 60.82-25.992L77.298 15.53a44.313 44.313 0 0 1 7.172 7.172zM94 50c0 1.111-.055 2.209-.137 3.3C77.845 69.227 56.599 78 34.001 78H16.084a44.226 44.226 0 0 1-4.165-6h12.082c23.748 0 46.075-9.249 62.868-26.042l5.969-5.968A43.928 43.928 0 0 1 94 50zm-9.959-6.87C68.003 59.168 46.681 68 24.001 68H9.866a43.752 43.752 0 0 1-2.189-6h6.324c23.748 0 46.075-9.249 62.868-26.042l9.972-9.972a43.829 43.829 0 0 1 4.727 9.617l-7.527 7.527zM50 6a43.726 43.726 0 0 1 24.013 7.159l-9.972 9.972C48.489 38.682 27.963 47.433 6.052 47.95 7.127 24.637 26.426 6 50 6zm0 88c-11.662 0-22.27-4.569-30.152-12h14.153c21.936 0 42.649-7.906 58.919-22.345C88.505 79.286 70.944 94 50 94z" fill="#F66666"/></svg></svg> </g></g> <g transform="translate(70,6.599996566772461)"><g fill-rule="" class="tp-name iconsvg-namesvg"><g transform="scale(1)"><g><path d="M4.42 0L13.2 0 13.2-16.05 23.4-16.05 31.92 0 41.8 0 31.2-17.55C36.73-20.28 39.2-26.26 39.2-31.14 39.2-40.3 33.48-45.5 23.21-45.5L4.42-45.5ZM13.2-23.34L13.2-37.83 22.23-37.83C28.08-37.83 30.94-35.43 30.94-30.94 30.94-26.13 27.56-23.34 22.3-23.34ZM55.38-38.48L55.38-45.5 46.54-45.5 46.54-38.48ZM46.54 0L55.32 0 55.32-32.5 46.54-32.5ZM62.14-22.75C62.14-7.8 72.61 0.65 85.74 0.65 99.19 0.65 109.59-7.8 109.59-22.75 109.59-38.41 99.19-46.15 85.74-46.15 72.61-46.15 62.14-37.77 62.14-22.75ZM70.98-22.75C70.98-32.89 77.42-37.9 85.74-37.9 94.31-37.9 100.81-32.89 100.81-22.75 100.81-12.61 94.31-7.67 85.74-7.67 77.42-7.67 70.98-12.61 70.98-22.75ZM148.92-30.55C148.92-40.76 141.7-46.15 130.06-46.15 119.6-46.15 112.58-40.95 112.58-33.93 112.58-17.36 140.14-23.34 140.14-12.61 140.14-8.91 136.31-6.5 130.84-6.5 124.54-6.5 120.84-9.75 120.84-15.02L111.93-15.02C111.93-4.23 119.53 0.65 131.04 0.65 141.57 0.65 148.92-4.62 148.92-12.61 148.92-29.12 121.09-24.12 121.09-33.8 121.09-37.7 125.84-39.07 130.13-39.07 136.05-39.07 140.14-35.75 140.14-30.55Z" transform="translate(-4.420000076293945, 46.150001525878906)"/></g> </g></g> </g></g><defs v-gra="od"/>
  </svg>
</svg>


